<svg style="position: absolute; width: 0; height: 0; overflow: hidden;" version="1.1" xmlns="http://www.w3.org/2000/svg" xmlns:xlink="http://www.w3.org/1999/xlink">
<defs>
<symbol id="icon-bookmark" viewBox="0 0 20 20">
<title>bookmark</title>
<path d="M14 2v17l-4-4-4 4v-17c0-0.553 0.585-1.020 1-1h6c0.689-0.020 1 0.447 1 1z"></path>
</symbol>
<symbol id="icon-chevron-thin-right" viewBox="0 0 20 20">
<title>chevron-thin-right</title>
<path d="M13.25 10l-7.141-7.42c-0.268-0.27-0.268-0.707 0-0.979 0.268-0.27 0.701-0.27 0.969 0l7.83 7.908c0.268 0.271 0.268 0.709 0 0.979l-7.83 7.908c-0.268 0.271-0.701 0.27-0.969 0s-0.268-0.707 0-0.979l7.141-7.417z"></path>
</symbol>
<symbol id="icon-archive" viewBox="0 0 20 20">
<title>archive</title>
<path d="M13.981 2h-7.963c0 0-0.996 0-0.996 1h9.955c0-1-0.996-1-0.996-1zM16.968 5c0-1-0.995-1-0.995-1h-11.946c0 0-0.995 0-0.995 1v1h13.936v-1zM18.958 6c-0.588-0.592-0.588-0.592-0.588-0.592v1.592h-16.74v-1.592c0 0 0 0-0.589 0.592s-1.011 0.75-0.774 2c0.236 1.246 1.379 8.076 1.549 9 0.186 1.014 1.217 1 1.217 1h13.936c0 0 1.030 0.014 1.217-1 0.17-0.924 1.312-7.754 1.549-9 0.235-1.25-0.187-1.408-0.777-2zM14 11.997c0 0.554-0.449 1.003-1.003 1.003h-5.994c-0.554 0-1.003-0.449-1.003-1.003v-1.997h1v2h6v-2h1v1.997z"></path>
</symbol>
<symbol id="icon-attachment" viewBox="0 0 20 20">
<title>attachment</title>
<path d="M5.602 19.8c-1.293 0-2.504-0.555-3.378-1.44-1.695-1.716-2.167-4.711 0.209-7.116 1.391-1.408 6.966-7.053 9.748-9.87 0.988-1 2.245-1.387 3.448-1.060 1.183 0.32 2.151 1.301 2.468 2.498 0.322 1.22-0.059 2.493-1.046 3.493l-9.323 9.44c-0.532 0.539-1.134 0.858-1.738 0.922-0.599 0.064-1.17-0.13-1.57-0.535-0.724-0.736-0.828-2.117 0.378-3.337l6.548-6.63c0.269-0.272 0.705-0.272 0.974 0s0.269 0.714 0 0.986l-6.549 6.631c-0.566 0.572-0.618 1.119-0.377 1.364 0.106 0.106 0.266 0.155 0.451 0.134 0.283-0.029 0.606-0.216 0.909-0.521l9.323-9.439c0.64-0.648 0.885-1.41 0.69-2.145-0.192-0.725-0.778-1.318-1.493-1.513-0.726-0.197-1.48 0.052-2.12 0.7-2.782 2.818-8.356 8.462-9.748 9.87-1.816 1.839-1.381 3.956-0.209 5.143 1.173 1.187 3.262 1.629 5.079-0.212l9.748-9.87c0.269-0.272 0.705-0.272 0.974 0s0.269 0.714 0 0.987l-9.748 9.87c-1.149 1.162-2.436 1.65-3.648 1.65z"></path>
</symbol>
<symbol id="icon-chat" viewBox="0 0 20 20">
<title>chat</title>
<path d="M5.8 12.2v-6.2h-3.8c-1.1 0-2 0.9-2 2v6c0 1.1 0.9 2 2 2h1v3l3-3h5c1.1 0 2-0.9 2-2v-1.82c-0.064 0.014-0.132 0.021-0.2 0.021l-7-0.001zM18 1h-9c-1.1 0-2 0.9-2 2v8h7l3 3v-3h1c1.1 0 2-0.899 2-2v-6c0-1.1-0.9-2-2-2z"></path>
</symbol>
<symbol id="icon-home" viewBox="0 0 20 20">
<title>home</title>
<path d="M18.672 11h-1.672v6c0 0.445-0.194 1-1 1h-4v-6h-4v6h-4c-0.806 0-1-0.555-1-1v-6h-1.672c-0.598 0-0.47-0.324-0.060-0.748l8.024-8.032c0.195-0.202 0.451-0.302 0.708-0.312 0.257 0.010 0.513 0.109 0.708 0.312l8.023 8.031c0.411 0.425 0.539 0.749-0.059 0.749z"></path>
</symbol>
<symbol id="icon-key" viewBox="0 0 20 20">
<title>key</title>
<path d="M17.691 4.725c-0.503-2.977-3.22-4.967-6.069-4.441s-5.256 2.816-4.753 5.795c0.107 0.641 0.408 1.644 0.763 2.365l-5.175 7.723c-0.191 0.285-0.299 0.799-0.242 1.141l0.333 1.971c0.058 0.342 0.372 0.572 0.7 0.514l1.516-0.281c0.328-0.059 0.744-0.348 0.924-0.639l2.047-3.311 0.018-0.022 1.386-0.256 2.39-3.879c0.785 0.139 1.912 0.092 2.578-0.031 2.848-0.526 4.087-3.67 3.584-6.649zM15.166 6.252c-0.784 1.17-1.584 0.346-2.703-0.475-1.119-0.818-2.135-1.322-1.352-2.492s2.326-1.455 3.447-0.635c1.12 0.819 1.391 2.432 0.608 3.602z"></path>
</symbol>
<symbol id="icon-location-pin" viewBox="0 0 20 20">
<title>location-pin</title>
<path d="M10 2.009c-2.762 0-5 2.229-5 4.99 0 4.774 5 11 5 11s5-6.227 5-11c0-2.76-2.238-4.99-5-4.99zM10 9.76c-1.492 0-2.7-1.209-2.7-2.7s1.208-2.7 2.7-2.7c1.49 0 2.699 1.209 2.699 2.7s-1.209 2.7-2.699 2.7z"></path>
</symbol>
<symbol id="icon-map" viewBox="0 0 20 20">
<title>map</title>
<path d="M19.447 3.718l-6-3c-0.281-0.141-0.613-0.141-0.895 0l-5.63 2.815-5.606-1.869c-0.306-0.102-0.64-0.051-0.901 0.138s-0.415 0.49-0.415 0.811v13.001c0 0.379 0.214 0.725 0.553 0.894l6 3c0.141 0.070 0.294 0.106 0.447 0.106s0.307-0.035 0.447-0.106l5.63-2.814 5.606 1.869c0.305 0.1 0.64 0.049 0.901-0.139s0.415-0.49 0.415-0.81v-13.002c0.001-0.379-0.213-0.725-0.552-0.894zM8 5.231l4-2v11.763l-4 2v-11.763zM2 4l4 1.333v11.661l-4-2v-10.994zM18 16.227l-4-1.334v-11.662l4 2v10.996z"></path>
</symbol>
<symbol id="icon-star" viewBox="0 0 20 20">
<title>star</title>
<path d="M10 1.3l2.388 6.722h6.412l-5.232 3.948 1.871 6.928-5.439-4.154-5.438 4.154 1.87-6.928-5.233-3.948h6.412l2.389-6.722z"></path>
</symbol>
<symbol id="icon-LandMrk" viewBox="0 0 32 32">
<title>LandMrk</title>
<path d="M3.272 16.416l2.828 2.828 5.657-5.657 2.828 2.828-2.828 2.828 2.828 2.828 5.657-5.657 5.657 5.657 2.828-2.828-8.485-8.485-2.828 2.828-5.657-5.656-8.485 8.486z"></path>
</symbol>
<symbol id="icon-scope" viewBox="0 0 32 32">
<title>scope</title>
<path d="M17 6.5c0-0.276-0.224-0.5-0.5-0.5s-0.5 0.224-0.5 0.5v8.5h-9.5c-0.276 0-0.5 0.224-0.5 0.5s0.224 0.5 0.5 0.5h9.5v9.469c0 0.276 0.224 0.5 0.5 0.5s0.5-0.224 0.5-0.5v-9.469h9.469c0.276 0 0.5-0.224 0.5-0.5s-0.224-0.5-0.5-0.5h-9.469v-8.5zM31.562 15h-2.613c-0.488-6.37-5.579-11.461-11.949-11.949v-2.551c0-0.276-0.224-0.5-0.5-0.5s-0.5 0.224-0.5 0.5v2.5c-6.83 0-12.435 5.299-12.949 12h-2.489c-0.276 0-0.5 0.224-0.5 0.5s0.224 0.5 0.5 0.5h2.438c0 7.168 5.832 13 13 13v2.5c0 0.276 0.224 0.5 0.5 0.5s0.5-0.224 0.5-0.5v-2.551c6.701-0.514 12-6.119 12-12.949h2.562c0.276 0 0.5-0.224 0.5-0.5s-0.223-0.5-0.5-0.5zM16 28c-6.617 0-12-5.383-12-12s5.383-12 12-12 12 5.383 12 12-5.383 12-12 12z"></path>
</symbol>
<symbol id="icon-navigation" viewBox="0 0 33 32">
<title>navigation</title>
<path d="M31.625 13.938c-0.508 0-1.731 0.563-2.603 1h-1.985c-0.12-2.543-1.141-4.845-2.755-6.6l1.312-1.313c0.932-0.305 2.302-0.799 2.679-1.176 0.586-0.586 0.586-1.536 0-2.122s-1.535-0.585-2.121 0c-0.359 0.359-0.826 1.624-1.133 2.548l-1.403 1.402c-1.763-1.605-4.070-2.612-6.616-2.718v-1.857c0.442-0.875 1.062-2.194 1.062-2.727 0-0.828-0.672-1.5-1.5-1.5s-1.5 0.672-1.5 1.5c0 0.508 0.563 1.731 1 2.603v1.985c-2.543 0.12-4.846 1.14-6.601 2.755l-1.312-1.313c-0.305-0.932-0.8-2.303-1.177-2.68-0.585-0.585-1.535-0.585-2.121 0s-0.586 1.536 0 2.122c0.359 0.36 1.623 0.826 2.547 1.133l1.403 1.403c-1.591 1.749-2.594 4.033-2.713 6.554h-1.985c-0.871-0.437-2.094-1-2.603-1-0.829 0-1.5 0.672-1.5 1.5s0.671 1.5 1.5 1.5c0.533 0 1.852-0.62 2.727-1.062h1.858c0.105 2.546 1.113 4.853 2.717 6.616l-1.402 1.403c-0.925 0.307-2.188 0.773-2.548 1.133-0.586 0.586-0.586 1.536 0 2.121 0.586 0.586 1.536 0.586 2.121 0 0.377-0.376 0.871-1.746 1.177-2.678l1.313-1.313c1.755 1.614 4.057 2.635 6.6 2.755v1.985c-0.437 0.871-1 2.095-1 2.603 0 0.828 0.672 1.5 1.5 1.5s1.5-0.672 1.5-1.5c0-0.533-0.62-1.852-1.062-2.727v-1.858c2.546-0.104 4.853-1.112 6.616-2.716l1.403 1.402c0.307 0.924 0.773 2.188 1.133 2.547 0.586 0.586 1.535 0.586 2.121 0s0.586-1.535 0-2.121c-0.377-0.377-1.747-0.871-2.679-1.177l-1.312-1.312c1.628-1.77 2.652-4.095 2.758-6.663h1.858c0.875 0.443 2.193 1.062 2.727 1.062 0.828 0 1.5-0.672 1.5-1.5s-0.673-1.499-1.501-1.499zM10.215 9.798l3.552 3.552c-0.342 0.457-0.569 0.997-0.655 1.587h-5.024c0.115-1.969 0.896-3.755 2.127-5.139zM8.084 15.875h5.022c0.078 0.615 0.308 1.178 0.662 1.65l-3.553 3.552c-1.243-1.398-2.028-3.208-2.131-5.202zM16.062 23.912c-1.992-0.116-3.795-0.914-5.186-2.17l3.55-3.55c0.467 0.362 1.023 0.606 1.636 0.694v5.026zM16.062 11.988c-0.613 0.088-1.169 0.333-1.636 0.695l-3.55-3.55c1.391-1.255 3.194-2.054 5.186-2.17v5.025zM25.037 14.938h-5.025c-0.088-0.612-0.332-1.169-0.694-1.636l3.55-3.55c1.255 1.39 2.053 3.194 2.169 5.186zM22.202 9.090l-3.552 3.553c-0.473-0.354-1.035-0.584-1.65-0.662v-5.022c1.994 0.103 3.804 0.888 5.202 2.131zM17 23.915v-5.021c0.615-0.078 1.178-0.308 1.65-0.661l3.552 3.552c-1.398 1.243-3.208 2.028-5.202 2.13zM22.867 21.123l-3.55-3.55c0.375-0.482 0.621-1.062 0.701-1.698h5.021c-0.101 2.017-0.903 3.844-2.172 5.248z"></path>
</symbol>
</defs>
</svg>
